<mxfile host="app.diagrams.net" modified="2024-04-23T16:42:50.613Z" agent="Mozilla/5.0 (Windows NT 10.0; Win64; x64; rv:125.0) Gecko/20100101 Firefox/125.0" version="24.2.8" etag="q15UYH8LAYvcnWoceutw" type="github">
  <diagram name="Strona-1" id="dkME61SoAmvg7W_nf9Rn">
    <mxGraphModel>
      <root>
        <mxCell id="0" />
        <mxCell id="1" parent="0" />
      </root>
    </mxGraphModel>
  </diagram>
</mxfile>
